PathFileType	4	(X/Y/Z)	 Patient4_KneeIso.trc
DataRate	CameraRate	NumFrames	NumMarkers	Units	OrigDataRate	OrigDataStartFrame	OrigNumFrames
100	100	9	33	mm	100	699	1863
Frame#	Time	Sacral			L.Shoulder			Chest			R.Shoulder			Neck			R.ASIS			L.ASIS			R.Thigh.Superior			R.Thigh.Lateral			R.Thigh.Inferior			R.Patella			L.Thigh.Superior			L.Thigh.Lateral			L.Thigh.Inferior			L.Patella			L.Shank.Superior			L.Shank.Lateral			L.Shank.Inferior			R.Shank.Superior			R.Shank.Lateral			R.Shank.Inferior			R.Heel			R.Midfoot.Superior			R.Midfoot.Lateral			R.Toe			L.Heel			L.Midfoot.Lateral			L.Midfoot.Superior			L.Toe			L.Elbow			L.Wrist			R.Elbow			R.Wrist			
		X1	Y1	Z1	X2	Y2	Z2	X3	Y3	Z3	X4	Y4	Z4	X5	Y5	Z5	X6	Y6	Z6	X7	Y7	Z7	X8	Y8	Z8	X9	Y9	Z9	X10	Y10	Z10	X11	Y11	Z11	X12	Y12	Z12	X13	Y13	Z13	X14	Y14	Z14	X15	Y15	Z15	X16	Y16	Z16	X17	Y17	Z17	X18	Y18	Z18	X19	Y19	Z19	X20	Y20	Z20	X21	Y21	Z21	X22	Y22	Z22	X23	Y23	Z23	X24	Y24	Z24	X25	Y25	Z25	X26	Y26	Z26	X27	Y27	Z27	X28	Y28	Z28	X29	Y29	Z29	X30	Y30	Z30	X31	Y31	Z31	X32	Y32	Z32	X33	Y33	Z33	

699	6.9800	808.270080	1013.304400	642.014830	581.776920	1442.176100	787.656740	517.323300	1354.927200	617.658690	614.256470	1446.572500	461.243190	615.981750	1493.459500	647.464540	604.456850	946.173710	484.460450	578.153630	951.830200	757.914430	517.067500	772.203250	524.937190	568.252440	647.476930	466.789030	483.434270	611.816650	551.995790	458.505520	513.648860	535.612430	539.004700	739.404110	714.047120	620.475460	630.701780	775.001590	549.181090	547.143070	698.355350	552.761960	482.042970	684.897220	574.716610	409.640010	690.327510	658.290950	289.762210	738.328610	611.047670	185.502520	655.498170	505.314240	426.513640	520.280520	596.320860	339.488370	456.146240	557.391540	234.549220	504.039830	706.606630	84.167560	532.611330	532.938110	118.238330	483.076350	630.824830	67.446630	452.140080	424.568330	53.322850	443.144380	738.086610	31.832230	609.647520	661.073910	28.690250	689.055540	579.765810	90.120750	661.363460	449.398800	39.211760	680.957580	662.515010	1130.746900	943.926880	419.312130	1180.501700	921.849910	728.755980	1213.770600	234.784640	679.860470	1066.223100	30.144330	
700	6.9900	807.900630	1013.288400	641.510500	582.646850	1442.184600	787.844850	517.864750	1355.342200	617.698670	614.773440	1446.881100	461.398250	616.769530	1493.627000	647.732180	603.897520	946.211550	484.262820	577.697630	952.045840	757.705510	516.626590	771.969970	525.160890	567.842290	647.243530	466.993260	483.153870	611.563290	552.392700	458.514740	512.914610	535.974730	538.740170	739.318420	713.839900	620.507080	630.811160	774.718570	549.359250	547.101810	698.065550	552.799680	482.063420	684.537480	574.986020	409.654940	690.106750	658.451050	289.867860	738.207340	611.101810	185.535340	655.398620	505.746250	426.324980	520.680110	597.718510	339.668820	456.443700	559.653080	234.462770	504.518220	710.134640	85.294130	532.755490	536.286010	118.172970	483.485500	634.317500	68.026700	452.628540	428.303800	52.364710	443.681400	738.068360	31.799000	609.644170	661.096560	28.704590	689.046080	579.753230	90.167460	661.360170	449.388730	39.244370	680.947630	662.963260	1130.322600	943.516600	419.853180	1180.611900	921.798710	729.098750	1214.008700	235.013700	680.392880	1066.375100	30.199010	
701	7.0000	807.550840	1013.258500	641.056460	583.438420	1442.229400	788.046020	518.203610	1355.759500	617.763550	615.248540	1447.256600	461.494200	617.477290	1493.781300	647.978270	603.389220	946.317810	484.016300	577.325990	952.290470	757.636470	516.297790	771.802800	525.337040	567.497560	647.071350	467.220700	482.987340	611.354370	552.750370	458.760070	512.378850	536.309810	538.569150	739.227660	713.655580	620.666930	630.948240	774.690190	549.516850	547.044620	697.819030	553.155150	482.124080	684.475280	575.317930	409.531190	689.813350	658.579220	289.898440	738.034670	611.126460	185.584270	655.386660	505.806850	426.235140	520.854550	599.066530	340.002900	456.760280	561.998840	234.485140	505.013520	713.700200	86.425740	533.072140	539.469360	118.138620	484.115080	637.997310	68.843020	452.934200	431.907100	51.571550	444.334660	738.091060	31.825440	609.638000	661.110840	28.685550	689.051030	579.753420	90.182140	661.347110	449.424100	39.251680	680.922180	663.378850	1129.958900	943.250670	420.475890	1180.933500	921.728700	729.507450	1214.333000	234.951930	680.808170	1066.572600	30.260200	
702	7.0100	807.344300	1013.351800	640.659480	584.164180	1442.271500	788.289860	518.398130	1356.103400	617.957340	615.502990	1447.454600	461.778050	618.131100	1493.909200	648.233460	602.883670	946.340090	483.788360	577.114870	952.333500	757.107670	516.005000	771.668210	525.457700	567.239560	646.889100	467.435760	482.842350	611.102110	553.144650	458.923130	511.930690	536.597660	538.453430	739.177060	713.450620	620.787780	630.982790	774.536440	549.721800	546.978820	697.590520	553.342960	482.127260	684.308900	575.444760	409.733950	689.802550	658.682190	289.944920	737.935240	611.210940	185.632680	655.327270	506.132080	426.170720	521.206300	600.490780	340.212650	457.208070	564.124940	234.642040	505.397800	717.112430	87.579380	533.440860	542.527530	118.305010	484.743770	641.335390	69.400920	453.396000	435.539860	50.988120	444.959470	738.080510	31.801230	609.661190	661.097050	28.687920	689.033450	579.794430	90.143640	661.329160	449.461210	39.271220	680.960880	663.815980	1129.652100	942.983460	420.954740	1181.332900	921.360780	729.771970	1214.603000	234.923450	681.181580	1066.760000	30.335890	
703	7.0200	807.014400	1013.399000	640.256290	584.858830	1442.435200	788.529480	518.599430	1356.454800	618.061220	615.546750	1447.710900	462.127010	618.728450	1494.017300	648.430540	602.546810	946.251650	483.797150	576.835940	952.496150	756.836670	515.753660	771.556820	525.620790	566.968020	646.747070	467.628570	482.751530	610.903690	553.502810	458.894710	511.341400	537.121520	538.365840	739.107360	713.314270	620.848630	631.016480	774.338260	549.828370	546.901250	697.460690	553.518370	482.125120	684.172060	575.629270	409.775120	689.669070	658.795470	290.026520	737.872310	611.570430	185.631270	655.196780	506.396000	425.999330	521.618530	601.783630	340.598240	457.677220	566.246640	234.698590	505.831790	720.366150	88.758390	533.938780	545.666630	118.314240	485.115970	644.762820	70.150700	453.849000	438.915860	50.339510	445.516170	738.110110	31.803550	609.635680	661.097530	28.687030	689.017880	579.792050	90.161600	661.317690	449.583070	39.370560	681.112980	664.149540	1129.416300	942.799870	421.453520	1181.791000	921.065120	729.877080	1214.786600	235.023970	681.492490	1066.945300	30.392370	
704	7.0300	806.817500	1013.449300	639.883300	585.251280	1442.278400	788.501530	518.748050	1356.744600	618.148500	615.645080	1447.932700	462.321530	619.189700	1494.111800	648.583130	602.307070	946.260380	483.679930	576.726070	952.585270	756.535710	515.592290	771.406010	525.736390	566.810850	646.562010	467.797000	482.683750	610.697020	553.872380	459.102420	510.805020	537.395690	538.342220	739.043330	713.214970	620.930480	631.032230	774.164490	549.993350	546.845700	697.346680	553.634700	482.116760	684.051820	575.760800	409.803800	689.568790	658.862060	290.063540	737.804260	611.642520	185.653840	655.119570	506.774480	425.867830	522.007200	603.304380	340.960360	457.990140	568.055910	234.945310	506.440160	723.395080	89.774050	534.390930	548.604860	118.542540	485.754940	647.816710	70.757790	454.433500	442.125850	49.886970	446.215910	738.082640	31.796860	609.623170	661.105900	28.673550	689.036440	579.795530	90.150460	661.325010	449.651980	39.365010	681.212220	664.354980	1129.190800	942.718020	421.944180	1182.292000	920.752440	729.914610	1215.003500	234.978990	681.743840	1067.136100	30.371760	
705	7.0400	806.655090	1013.530400	639.484010	585.779240	1442.223600	788.564760	518.867920	1356.908300	618.263180	615.733150	1448.162400	462.351780	619.650270	1494.207800	648.719360	602.071840	946.220830	483.500150	576.640200	952.709170	756.335390	515.488890	771.291560	525.738530	566.601010	646.407650	467.965580	482.669040	610.485960	554.197140	459.258540	510.276550	537.560490	538.309750	738.973750	713.121770	621.019650	630.987980	774.002930	550.033630	546.765200	697.265200	553.672850	482.130800	683.981570	575.865600	409.836790	689.476500	658.927060	290.112520	737.779240	611.695620	185.668490	655.151490	507.102540	425.742860	522.449580	604.214290	341.166350	458.389370	570.056210	234.964420	506.993350	726.257450	90.756200	534.900210	551.218810	118.549710	486.333830	650.748170	71.513740	454.885990	445.214900	49.396460	446.563200	738.080260	31.810260	609.648250	661.114320	28.663440	689.020080	579.807190	90.179460	661.356020	449.670320	39.382980	681.219060	664.491460	1129.065400	942.690550	422.355190	1182.887200	920.270140	729.918820	1215.236200	234.894790	681.888920	1067.306000	30.352020	
706	7.0500	806.503910	1013.599300	639.081360	586.288270	1442.198900	788.600220	518.955080	1357.101000	618.301570	615.744140	1448.275100	462.348050	620.026370	1494.250600	648.780640	602.061950	946.388000	482.989810	576.555480	952.760250	756.169620	515.399110	771.206970	525.754940	566.526920	646.258790	468.090420	482.676730	610.355220	554.470460	459.353390	509.913640	537.951480	538.288090	738.948300	713.080440	621.008540	631.030210	773.754030	550.060490	546.622800	697.179020	553.728520	482.121000	683.815730	575.840700	409.870570	689.403630	658.942080	290.166320	737.755550	611.724850	185.679570	655.117680	507.423340	425.644740	522.880860	605.445680	341.456240	458.995060	571.927310	235.059980	507.352870	728.976010	91.901830	535.495420	553.363460	118.649510	487.162900	653.638920	72.165800	455.408200	448.137510	49.052710	447.213870	738.086850	31.799140	609.649660	661.094120	28.681140	689.041320	579.803220	90.191790	661.349300	449.591460	39.374640	681.111820	664.598210	1128.973800	942.699770	422.670620	1183.423500	919.879210	729.821530	1215.453200	234.809920	682.105040	1067.539600	30.210720	
707	7.0600	806.402590	1013.651000	638.692930	586.646790	1442.186900	788.617190	519.020260	1357.228800	618.366330	615.710750	1448.429700	462.332430	620.354130	1494.249900	648.844300	601.901430	946.383910	482.706270	576.583740	952.781860	755.987670	515.258120	771.092160	525.806700	566.443360	646.049010	468.254270	482.665370	610.225520	554.763060	459.704930	509.497710	538.096190	538.326540	738.922910	712.972840	620.984740	630.980040	773.523440	550.097290	546.512570	697.122310	553.710390	482.089810	683.779600	575.809020	409.878940	689.315000	658.925420	290.203250	737.703980	611.697750	185.676360	655.134400	507.652280	425.488980	523.265500	606.523620	341.785030	459.363460	573.568360	235.204060	507.856960	731.428470	92.817410	535.852970	555.511780	118.664300	487.661440	656.197690	72.733960	455.782650	450.783420	48.571410	447.741940	738.106870	31.796650	609.637940	661.110780	28.690620	689.009160	579.796020	90.124520	661.317200	449.440370	39.298420	680.924870	664.578310	1128.866600	942.771420	422.870970	1183.880600	919.227660	729.680540	1215.625900	234.685940	682.131590	1067.673600	30.081770	
